<svg width="191" height="160" viewBox="0 0 191 160" fill="none" xmlns="http://www.w3.org/2000/svg">
<g clip-path="url(#clip0_200_4447)">
<rect width="191" height="160" fill="white"/>
<circle cx="95.5" cy="80.5" r="48.5" stroke="#444245" stroke-width="6"/>
<rect width="170" height="31" transform="translate(9 58)" fill="white"/>
<path d="M9 58L12.8098 59.8047C16.5565 61.5794 20.6505 62.5 24.7963 62.5H77V69.5H26.2372C23.7706 69.5 21.3289 69.0069 19.0557 68.0497C15.1383 66.4004 11.9082 63.4528 9.90798 59.7025L9 58Z" fill="#28446B"/>
<path d="M179 58.5L175.008 60.3086C171.378 61.9535 167.438 62.8043 163.453 62.8043H111V69.5H161.872C164.268 69.5 166.642 69.0399 168.865 68.1447C172.835 66.5459 176.137 63.6352 178.221 59.8974L179 58.5Z" fill="#28446B"/>
<path d="M167 78.5L164.432 79.7973C160.517 81.7743 156.193 82.8043 151.808 82.8043H106V89.5H151.384C153.695 89.5 155.98 89.0107 158.088 88.0642C161.531 86.5183 164.334 83.83 166.022 80.4545L167 78.5Z" fill="#28446B"/>
<path d="M20 78.5L22.5685 79.7973C26.4828 81.7743 30.8067 82.8043 35.192 82.8043H81V89.5H35.6159C33.305 89.5 31.0204 89.0107 28.9122 88.0642C25.4691 86.5183 22.666 83.83 20.9776 80.4545L20 78.5Z" fill="#28446B"/>
<path d="M173 68.5L170.225 69.879C166.353 71.8031 162.088 72.8043 157.765 72.8043H111V79.5H157.169C159.491 79.5 161.789 79.0153 163.913 78.0768C167.431 76.5227 170.305 73.8013 172.048 70.3728L173 68.5Z" fill="#28446B"/>
<path d="M15 68.5L17.7749 69.879C21.6468 71.8031 25.9118 72.8043 30.2354 72.8043H77V79.5H30.8311C28.5085 79.5 26.2114 79.0153 24.0868 78.0768C20.5686 76.5227 17.6951 73.8013 15.9521 70.3728L15 68.5Z" fill="#28446B"/>
<path d="M78 62.25H77.25V63V76.4386C77.25 84.5579 80.4153 92.4819 86.8462 97.571C89.8914 99.9808 92.4112 101.793 93.2616 102.397L93.6958 101.785L93.2616 102.397C93.7331 102.732 94.3469 102.686 94.7696 102.338L94.3234 101.796L94.7696 102.338L99.5473 98.4035C106.641 92.5623 110.75 83.8549 110.75 74.6661V63V62.25H110H78Z" fill="#494A4E" stroke="white" stroke-width="1.5"/>
<path d="M91.425 80.616V87H89.337V70.68H94.449C95.985 70.68 97.169 71.088 98.001 71.904C98.849 72.704 99.273 73.776 99.273 75.12V76.152C99.273 77.112 99.049 77.944 98.601 78.648C98.169 79.352 97.545 79.872 96.729 80.208C97.417 81.312 98.057 82.432 98.649 83.568C99.241 84.704 99.785 85.848 100.281 87H97.881C96.969 84.824 95.905 82.696 94.689 80.616H91.425ZM94.449 72.6H91.425V78.696H94.449C95.265 78.696 95.913 78.472 96.393 78.024C96.873 77.56 97.113 76.936 97.113 76.152V75.12C97.113 74.32 96.873 73.704 96.393 73.272C95.913 72.824 95.265 72.6 94.449 72.6Z" fill="white"/>
<path d="M91.1429 103H96.8571L98 115.5L94 119L90 115.5L91.1429 103Z" fill="#224067"/>
<path d="M96.9246 102.031L101.548 98.6726L109.819 108.114L108.641 113.296L103.347 112.816L96.9246 102.031Z" fill="#224067"/>
<path d="M102.808 97.8481L106.849 93.8075L116.496 101.838L116.142 107.142L110.839 107.495L102.808 97.8481Z" fill="#224067"/>
<path d="M86.3308 98.6718L90.9538 102.031L84.5311 112.815L79.2378 113.295L78.0589 108.113L86.3308 98.6718Z" fill="#224067"/>
<path d="M81.1206 93.8081L85.1612 97.8487L77.1305 107.496L71.8272 107.142L71.4737 101.839L81.1206 93.8081Z" fill="#224067"/>
<path d="M28.675 148.616V155H26.587V138.68H31.699C33.235 138.68 34.419 139.088 35.251 139.904C36.099 140.704 36.523 141.776 36.523 143.12V144.152C36.523 145.112 36.299 145.944 35.851 146.648C35.419 147.352 34.795 147.872 33.979 148.208C34.667 149.312 35.307 150.432 35.899 151.568C36.491 152.704 37.035 153.848 37.531 155H35.131C34.219 152.824 33.155 150.696 31.939 148.616H28.675ZM31.699 140.6H28.675V146.696H31.699C32.515 146.696 33.163 146.472 33.643 146.024C34.123 145.56 34.363 144.936 34.363 144.152V143.12C34.363 142.32 34.123 141.704 33.643 141.272C33.163 140.824 32.515 140.6 31.699 140.6ZM49.185 154.304C48.465 154.656 47.745 154.896 47.025 155.024C46.305 155.168 45.641 155.24 45.033 155.24C43.321 155.24 42.041 154.752 41.193 153.776C40.361 152.8 39.945 151.464 39.945 149.768V148.328C39.945 146.68 40.361 145.36 41.193 144.368C42.041 143.376 43.233 142.88 44.769 142.88C45.585 142.88 46.329 143.048 47.001 143.384C47.689 143.704 48.233 144.2 48.633 144.872C49.049 145.528 49.257 146.376 49.257 147.416C49.257 148.088 49.161 148.856 48.969 149.72H41.889V149.768C41.889 150.984 42.137 151.904 42.633 152.528C43.145 153.152 43.961 153.464 45.081 153.464C45.593 153.464 46.153 153.4 46.761 153.272C47.385 153.144 47.993 152.944 48.585 152.672L49.185 154.304ZM44.769 144.608C43.841 144.608 43.137 144.912 42.657 145.52C42.193 146.112 41.937 146.952 41.889 148.04H47.265C47.313 147.752 47.337 147.48 47.337 147.224C47.337 146.328 47.081 145.672 46.569 145.256C46.073 144.824 45.473 144.608 44.769 144.608ZM62.1668 156.488C62.1668 157.656 61.6868 158.592 60.7268 159.296C59.7828 160 58.4788 160.352 56.8148 160.352C55.9828 160.352 55.1108 160.24 54.1988 160.016C53.3028 159.792 52.4548 159.432 51.6548 158.936L52.3268 157.4C53.1268 157.848 53.8948 158.16 54.6308 158.336C55.3828 158.528 56.1108 158.624 56.8148 158.624C57.9028 158.624 58.7428 158.448 59.3348 158.096C59.9268 157.744 60.2228 157.272 60.2228 156.68C60.2228 156.248 60.0788 155.912 59.7908 155.672C59.5028 155.448 59.0388 155.336 58.3988 155.336H55.6388C54.5988 155.336 53.8468 155.088 53.3828 154.592C52.9188 154.096 52.6868 153.552 52.6868 152.96C52.6868 152.544 52.7828 152.136 52.9748 151.736C53.1668 151.32 53.4388 150.912 53.7908 150.512C53.2308 150.176 52.7828 149.72 52.4468 149.144C52.1108 148.552 51.9428 147.84 51.9428 147.008C51.9428 146.096 52.1348 145.336 52.5188 144.728C52.9188 144.12 53.4468 143.664 54.1028 143.36C54.7588 143.04 55.4948 142.88 56.3108 142.88H56.7188C57.2788 142.88 57.7908 142.96 58.2548 143.12H62.5268V144.872L59.9348 144.512C60.2708 144.8 60.5428 145.16 60.7508 145.592C60.9588 146.008 61.0628 146.52 61.0628 147.128C61.0628 147.992 60.8628 148.72 60.4628 149.312C60.0788 149.904 59.5588 150.36 58.9028 150.68C58.2468 150.984 57.5188 151.136 56.7188 151.136H56.3108C56.1028 151.136 55.9028 151.128 55.7108 151.112C55.5188 151.08 55.3268 151.048 55.1348 151.016C54.6708 151.528 54.4388 152.032 54.4388 152.528C54.4388 153.168 54.8868 153.488 55.7828 153.488H58.4708C59.6228 153.488 60.5268 153.744 61.1828 154.256C61.8388 154.768 62.1668 155.512 62.1668 156.488ZM56.7188 149.432C57.3428 149.432 57.8948 149.232 58.3748 148.832C58.8548 148.432 59.0948 147.824 59.0948 147.008C59.0948 146.208 58.8548 145.608 58.3748 145.208C57.8948 144.792 57.3428 144.584 56.7188 144.584H56.3108C55.6708 144.584 55.1108 144.792 54.6308 145.208C54.1508 145.608 53.9108 146.208 53.9108 147.008C53.9108 147.824 54.1508 148.432 54.6308 148.832C55.1108 149.232 55.6708 149.432 56.3108 149.432H56.7188ZM72.4515 155V153.32C71.6195 154.04 70.8755 154.544 70.2195 154.832C69.5635 155.104 68.9075 155.24 68.2515 155.24C67.1955 155.24 66.3875 154.896 65.8275 154.208C65.2675 153.504 64.9875 152.52 64.9875 151.256V143.12H66.9555V150.968C66.9555 151.8 67.0995 152.416 67.3875 152.816C67.6915 153.2 68.1395 153.392 68.7315 153.392C69.1795 153.392 69.6835 153.28 70.2435 153.056C70.8035 152.832 71.4995 152.384 72.3315 151.712V143.12H74.2995V155H72.4515ZM88.1858 155V147.728H81.0578V155H78.9698V138.68H81.0578V145.76H88.1858V138.68H90.2738V155H88.1858ZM102.241 155V153.32C101.409 154.04 100.665 154.544 100.009 154.832C99.3526 155.104 98.6966 155.24 98.0406 155.24C96.9846 155.24 96.1766 154.896 95.6166 154.208C95.0566 153.504 94.7766 152.52 94.7766 151.256V143.12H96.7446V150.968C96.7446 151.8 96.8886 152.416 97.1766 152.816C97.4806 153.2 97.9286 153.392 98.5206 153.392C98.9686 153.392 99.4726 153.28 100.033 153.056C100.593 152.832 101.289 152.384 102.121 151.712V143.12H104.089V155H102.241ZM117.927 149.768C117.927 151.432 117.511 152.76 116.679 153.752C115.847 154.744 114.623 155.24 113.007 155.24C111.407 155.24 109.823 154.816 108.255 153.968V137.24H110.223V144.728C110.943 144.056 111.599 143.584 112.191 143.312C112.799 143.024 113.415 142.88 114.039 142.88C115.287 142.88 116.247 143.36 116.919 144.32C117.591 145.28 117.927 146.632 117.927 148.376V149.768ZM113.559 144.728C113.111 144.728 112.631 144.848 112.119 145.088C111.623 145.328 110.991 145.824 110.223 146.576V152.864C111.167 153.264 112.055 153.464 112.887 153.464C113.959 153.464 114.727 153.136 115.191 152.48C115.655 151.808 115.887 150.904 115.887 149.768V148.376C115.887 147.128 115.695 146.208 115.311 145.616C114.927 145.024 114.343 144.728 113.559 144.728ZM136.444 155V147.728H129.316V155H127.228V138.68H129.316V145.76H136.444V138.68H138.532V155H136.444ZM146.946 153.368C147.954 153.368 148.73 153.152 149.274 152.72C149.818 152.272 150.09 151.624 150.09 150.776C150.09 150.072 149.898 149.48 149.514 149C149.146 148.52 148.538 148.152 147.69 147.896L145.746 147.32C144.53 146.952 143.634 146.4 143.058 145.664C142.482 144.912 142.194 143.992 142.194 142.904C142.194 142.072 142.354 141.32 142.674 140.648C143.01 139.976 143.538 139.44 144.258 139.04C144.994 138.64 145.954 138.44 147.138 138.44C147.858 138.44 148.602 138.528 149.37 138.704C150.138 138.864 150.914 139.128 151.698 139.496L151.026 141.296C150.258 140.96 149.562 140.72 148.938 140.576C148.33 140.416 147.746 140.336 147.186 140.336C146.274 140.336 145.562 140.528 145.05 140.912C144.554 141.28 144.306 141.896 144.306 142.76C144.306 143.384 144.474 143.912 144.81 144.344C145.146 144.76 145.746 145.104 146.61 145.376L148.554 145.952C150.986 146.672 152.202 148.224 152.202 150.608C152.202 151.984 151.786 153.104 150.954 153.968C150.122 154.816 148.786 155.24 146.946 155.24C146.194 155.24 145.394 155.152 144.546 154.976C143.714 154.784 142.85 154.488 141.954 154.088L142.602 152.312C143.45 152.696 144.21 152.968 144.882 153.128C145.57 153.288 146.258 153.368 146.946 153.368ZM164.871 153.056V155H155.751V138.68H164.631V140.648H157.839V145.76H163.911V147.728H157.839V153.056H164.871Z" fill="#3F3F3F"/>
<path d="M102.613 61.8095H86.641C86.5305 61.8095 86.441 61.72 86.441 61.6095V56.7817C86.441 56.7059 86.3982 56.6367 86.3304 56.6028L85.0805 55.9779C84.4695 55.6724 83.7958 55.5133 83.1127 55.5133H79.1387C79.0705 55.5133 79.0223 55.4465 79.0439 55.3817L79.9657 52.6162C80.0768 52.2829 80.3546 52.0324 80.6975 51.9562L85.2962 50.9343V50.49C85.2962 50.0694 85.5593 49.6939 85.9544 49.5502L89.8015 48.1512C90.9344 47.7393 92.1927 47.8602 93.2264 48.4804L95.8597 50.0604C96.7633 50.6025 97.3162 51.5791 97.3162 52.6329V53.8548C97.3162 54.5566 97.5622 55.2362 98.0115 55.7754L102.767 61.4815C102.875 61.6118 102.783 61.8095 102.613 61.8095Z" fill="#264674"/>
<path d="M90.266 51.7598L90.9892 51.5512L90.675 51.3226C90.0101 50.8388 89.0961 50.8917 88.4913 51.4488L88.7448 51.5888C89.2092 51.8453 89.7563 51.9068 90.266 51.7598Z" fill="white"/>
</g>
<defs>
<clipPath id="clip0_200_4447">
<rect width="191" height="160" fill="white"/>
</clipPath>
</defs>
</svg>
